<svg xmlns="http://www.w3.org/2000/svg" xmlns:xlink="http://www.w3.org/1999/xlink" width="900" height="600" viewBox="0 0 238.12 158.75"><path fill="#ee1c25" d="M0 0h238.12v158.75H0z"/><g id="petal"><path d="m117.93 78.627c-13.254-9.4229-14.956-22.051-14.285-32.233 0.40002-6.073 2.5879-10.821 6.4967-14.202 6.4693-5.5963 18.614-5.5936 23.016 2.9242-5.4988-3.4042-8.7468 0.84102-6.0002 5.9587 5.8714 7.6744 4.1588 16.226-1.8858 20.586-8.2715 4.3662-11.184 4.4824-7.3414 16.966z" fill="#fff" stroke-width=".26458"/><path d="m116.01 54.008-3.2515 0.84117 1.7699-2.8564-1.8067-2.8348 3.2658 0.79929 2.1369-2.5915 0.24552 3.3502 3.1265 1.2307-3.1084 1.2728-0.20732 3.3514z" fill="#ee1c25" stroke-width=".3048"/><path d="m115.02 55.149c-3.5938 8.4015-2.6401 14.496-0.7515 18.469 0.94431 1.9862 1.8553 3.8356 2.796 4.7937 0.47035 0.47906 1.1457 0.43882 1.4441 0.67491 0.14918 0.11804 0.2687 0.20618 0.35579 0.26662 0.0435 0.03019 0.0788 0.05402 0.10909 0.07292 0.0152 0.0093 0.0277 0.01704 0.0509 0.02943 0.012 0.0061 0.0186 0.01206 0.0649 0.02922 0.0229 0.0084 0.16756 0.03167 0.16786 0.03167 2.9e-4 9e-6 0.47373-0.47435 0.47369-0.47457 0 0-0.22574-0.28673-0.27886-0.31212 0.0436 0.01625 0.0467 0.02184 0.0531 0.02542 0.0131 0.0069 0.012 5e-3 7e-3 0.0019-0.01-0.0062-0.0377-0.02348-0.0719-0.04724-0.0686-0.04759-0.17409-0.12408-0.30928-0.23106-0.27042-0.21396-0.98526-0.54561-1.4283-0.99686-0.88609-0.9025-1.6736-2.2844-2.5745-4.1792-1.8018-3.7895-2.7614-9.6308 0.76135-17.866z" fill="#ee1c25"/></g><use transform="rotate(72 118.99 79.32)" xlink:href="#petal"/><use transform="rotate(-72 118.82 79.056)" xlink:href="#petal"/><use transform="rotate(216 118.41 78.911)" xlink:href="#petal"/><use transform="rotate(144 118.44 78.758)" xlink:href="#petal"/></svg>
