<?xml version="1.0" encoding="UTF-8"?>
<svg version="1.1" xmlns="http://www.w3.org/2000/svg" width="147" height="150">
<path d="M0 0 C48.51 0 97.02 0 147 0 C147 49.5 147 99 147 150 C98.49 150 49.98 150 0 150 C0 100.5 0 51 0 0 Z " fill="transparent" transform="translate(0,0)"/>
<path d="M0 0 C2.37248472 -0.02890509 4.74461017 -0.04987019 7.1171875 -0.06640625 C8.11335083 -0.07976013 8.11335083 -0.07976013 9.12963867 -0.09338379 C22.58047436 -0.16348318 35.1109611 5.04998539 44.9375 14.25 C58.94848679 29.44356549 58.42891465 46.94053307 58.29296875 66.359375 C58.28736538 68.71876759 58.28309879 71.07816369 58.28010559 73.43756104 C58.26871518 79.61232335 58.23929839 85.78687004 58.20599365 91.96154785 C58.17516707 98.27641891 58.16157346 104.5913252 58.14648438 110.90625 C58.11442277 123.27092746 58.06329732 135.63544572 58 148 C54.96860115 148.04239587 51.93780359 148.07328461 48.90625 148.09765625 C48.05450195 148.11074829 47.20275391 148.12384033 46.32519531 148.1373291 C34.75493038 148.20699592 25.00296528 144.2887575 16 137 C5.27605986 126.12595805 -0.20299451 114.30916127 -0.24884033 99.08985901 C-0.24164978 98.12168747 -0.23445923 97.15351593 -0.22705078 96.15600586 C-0.22734283 95.11105957 -0.22763489 94.06611328 -0.22793579 92.98950195 C-0.22655182 89.56452892 -0.21103463 86.13977838 -0.1953125 82.71484375 C-0.19157906 80.32874165 -0.18873365 77.942638 -0.18673706 75.55653381 C-0.17912672 69.29794021 -0.15950061 63.03944048 -0.1373291 56.78088379 C-0.11681458 50.38583648 -0.10772337 43.9907739 -0.09765625 37.59570312 C-0.07625222 25.0637622 -0.04253608 12.53188611 0 0 Z " fill="#0F1A29" transform="translate(88,1)"/>
<path d="M0 0 C0.86818359 -0.01224609 1.73636719 -0.02449219 2.63085938 -0.03710938 C7.84193096 -0.04892586 12.13018142 0.48970871 17.0625 2.1875 C16.53462891 2.87972656 16.53462891 2.87972656 15.99609375 3.5859375 C14.33799795 5.77652881 12.70114314 7.98232378 11.0625 10.1875 C10.16337891 11.36119141 10.16337891 11.36119141 9.24609375 12.55859375 C1.17681546 23.45124802 -1.18353791 33.22919401 0.34765625 46.6953125 C1.88255071 55.24899621 6.68874359 63.30277861 13.0625 69.1875 C15.15824079 70.36901947 15.15824079 70.36901947 17.0625 71.1875 C17.0625 71.8475 17.0625 72.5075 17.0625 73.1875 C14.73176137 74.15257147 12.39821249 75.10960022 10.0625 76.0625 C9.41410156 76.33191406 8.76570313 76.60132813 8.09765625 76.87890625 C0.27347613 80.05505858 -6.78868558 81.55909816 -15.25 81.5 C-16.08523193 81.49508545 -16.92046387 81.4901709 -17.78100586 81.48510742 C-24.21077757 81.3634378 -29.92853954 80.59303198 -35.9375 78.1875 C-36.78441406 77.85878906 -37.63132812 77.53007812 -38.50390625 77.19140625 C-47.44090617 73.24821087 -53.92213431 67.16174018 -58 58.25 C-61.29322469 49.25915473 -60.77776527 40.94767808 -56.9375 32.1875 C-47.75165751 16.03137053 -33.55756093 6.29415239 -15.9375 1.1875 C-10.63577233 0.01016103 -5.40493451 0.00399478 0 0 Z " fill="#0F1B29" transform="translate(60.9375,67.8125)"/>
<path d="M0 0 C16.78112118 0 30.02669843 1.18638466 42.6875 12.375 C43.450625 13.24125 44.21375 14.1075 45 15 C45.82951172 15.84304687 45.82951172 15.84304687 46.67578125 16.703125 C55.84884811 26.3672554 58 35.83181514 58 49 C38.86 49 19.72 49 0 49 C0 32.83 0 16.66 0 0 Z " fill="#0F1B29" transform="translate(20,1)"/>
<path d="M0 0 C5.28 0 10.56 0 16 0 C16 0.33 16 0.66 16 1 C11.05 1 6.1 1 1 1 C1 16.51 1 32.02 1 48 C18.82 48 36.64 48 55 48 C55.495 43.05 55.495 43.05 56 38 C56.33 36.68 56.66 35.36 57 34 C58 37 58 37 58 49 C38.86 49 19.72 49 0 49 C0 32.83 0 16.66 0 0 Z " fill="#0F1B29" transform="translate(20,1)"/>
<path d="M0 0 C0.66 0 1.32 0 2 0 C3.2890625 1.53125 3.2890625 1.53125 4.625 3.5 C5.07101563 4.1496875 5.51703125 4.799375 5.9765625 5.46875 C6.31429687 5.9740625 6.65203125 6.479375 7 7 C6.01 7.495 6.01 7.495 5 8 C4.34 7.67 3.68 7.34 3 7 C3.33 8.32 3.66 9.64 4 11 C3.01 10.67 2.02 10.34 1 10 C-0.14769226 6.55692321 0 3.59905765 0 0 Z " fill="#0F1B29" transform="translate(64,127)"/>
<path d="M0 0 C0.66 0.99 1.32 1.98 2 3 C1.34 4.32 0.68 5.64 0 7 C-0.33 7 -0.66 7 -1 7 C-1.33 9.31 -1.66 11.62 -2 14 C-2.33 14 -2.66 14 -3 14 C-3.08153933 12.41753293 -3.13943557 10.83383727 -3.1875 9.25 C-3.22230469 8.36828125 -3.25710937 7.4865625 -3.29296875 6.578125 C-2.94923684 3.55328417 -1.99772541 2.24416398 0 0 Z " fill="#0F1B29" transform="translate(4,106)"/>
<path d="M0 0 C2.28062828 3.42094242 2.21925007 4.68187222 2.125 8.6875 C2.10695313 9.68136719 2.08890625 10.67523438 2.0703125 11.69921875 C2.03550781 12.83810547 2.03550781 12.83810547 2 14 C1.01 14 0.02 14 -1 14 C-0.9278125 13.32453125 -0.855625 12.6490625 -0.78125 11.953125 C-0.6884375 11.06109375 -0.595625 10.1690625 -0.5 9.25 C-0.4071875 8.36828125 -0.314375 7.4865625 -0.21875 6.578125 C0.05636313 3.76695165 0.05636313 3.76695165 0 0 Z " fill="#0F1B29" transform="translate(76,35)"/>
<path d="M0 0 C1.98 1.65 3.96 3.3 6 5 C5.34 5.66 4.68 6.32 4 7 C3.34 6.67 2.68 6.34 2 6 C2 5.34 2 4.68 2 4 C1.34 4 0.68 4 0 4 C0 2.68 0 1.36 0 0 Z " fill="#0F1B29" transform="translate(127,11)"/>
</svg>
